<?xml version="1.0" standalone="no"?>
<!DOCTYPE svg PUBLIC "-//W3C//DTD SVG 20010904//EN"
 "http://www.w3.org/TR/2001/REC-SVG-20010904/DTD/svg10.dtd">
<svg version="1.0" xmlns="http://www.w3.org/2000/svg"
 width="2726.000000pt" height="2628.000000pt" viewBox="0 0 2726.000000 2628.000000"
 preserveAspectRatio="xMidYMid meet">

<g transform="translate(0.000000,2628.000000) scale(0.100000,-0.100000)"
fill="#000000" stroke="none">
<path d="M13525 26254 c-493 -22 -1303 -95 -1820 -165 -1561 -212 -2556 -449
-3860 -922 -143 -52 -335 -117 -426 -145 -543 -167 -1257 -466 -2004 -839
-294 -147 -319 -160 -645 -336 -597 -323 -1061 -620 -1476 -944 -682 -533
-846 -676 -1284 -1119 -470 -476 -724 -780 -1140 -1369 -207 -292 -272 -393
-353 -545 -145 -273 -362 -822 -432 -1095 -81 -315 -94 -653 -30 -792 28 -61
24 -60 195 -67 343 -13 693 -175 1205 -558 459 -343 975 -843 1706 -1654 215
-238 253 -287 749 -949 475 -635 1079 -1497 1451 -2070 152 -235 256 -454 471
-990 86 -214 109 -275 104 -275 -2 0 -29 33 -59 73 -62 80 -113 171 -163 286
l-34 76 0 -60 c0 -106 42 -266 105 -402 52 -112 121 -209 218 -305 l88 -87 49
-153 c162 -510 279 -946 311 -1165 11 -73 24 -144 29 -159 17 -43 12 -52 -42
-70 -29 -9 -130 -49 -223 -89 -94 -40 -222 -87 -285 -105 -394 -109 -915 -311
-1345 -520 -368 -180 -719 -385 -1155 -676 -214 -142 -301 -207 -393 -291 -64
-59 -133 -128 -154 -151 -20 -24 -82 -79 -137 -122 -56 -43 -135 -108 -176
-144 -41 -36 -78 -66 -81 -66 -6 0 -351 -366 -429 -455 -68 -78 -117 -163
-213 -369 -125 -267 -186 -480 -218 -756 -16 -144 -7 -390 20 -495 22 -88 108
-344 122 -361 5 -6 29 -51 55 -100 174 -335 487 -684 934 -1043 138 -111 493
-349 680 -456 74 -43 216 -138 315 -212 200 -148 289 -197 565 -306 312 -124
638 -226 910 -286 183 -40 410 -73 495 -70 38 1 88 -3 110 -9 22 -6 81 -14
130 -18 107 -8 120 -12 188 -63 47 -35 129 -82 181 -104 15 -6 13 0 -9 30 -16
21 -39 50 -53 65 -14 15 -23 30 -20 33 11 12 165 -17 217 -40 77 -36 118 -78
157 -161 18 -40 37 -75 43 -79 24 -14 9 -25 -34 -25 l-44 0 51 -79 c74 -115
456 -499 673 -676 94 -77 206 -170 250 -208 188 -163 517 -393 633 -442 43
-18 140 -63 217 -100 77 -37 257 -121 400 -187 563 -259 640 -283 947 -299
176 -9 189 -9 225 10 61 31 106 90 122 163 8 31 6 88 -6 203 -27 275 -3 547
62 708 63 155 141 194 430 218 193 15 476 1 730 -37 55 -8 168 -24 250 -35
276 -37 485 -93 726 -195 70 -30 135 -54 146 -54 10 0 27 -6 38 -14 11 -7 79
-37 150 -66 147 -59 420 -189 512 -243 158 -92 256 -120 480 -138 184 -14 267
-3 465 62 174 57 232 88 498 264 471 311 818 600 1480 1231 867 825 1677 1774
2569 3006 l142 197 57 11 c161 31 366 117 732 307 664 346 1281 729 1805 1122
693 520 1094 874 1539 1361 239 260 527 611 700 848 21 28 40 52 42 52 3 0
-10 -28 -29 -62 -19 -35 -63 -115 -97 -178 -35 -63 -91 -162 -125 -220 -34
-58 -90 -154 -125 -215 -67 -118 -230 -358 -289 -428 -20 -23 -43 -51 -51 -61
-14 -18 -14 -19 5 -9 39 21 221 157 325 242 135 111 353 322 445 432 141 168
254 343 457 704 52 94 123 225 156 292 34 67 89 167 122 223 92 153 200 376
274 562 173 435 349 1034 420 1428 41 228 98 682 95 764 -1 35 1 45 -129 -487
-49 -202 -97 -380 -105 -395 -19 -33 -23 -50 40 203 131 531 180 946 157 1341
-18 304 -43 432 -157 802 -99 321 -210 579 -344 800 -84 137 -88 128 144 287
215 146 332 214 555 323 247 121 291 138 535 205 l190 52 170 -1 c186 -1 292
-18 414 -68 35 -14 67 -23 72 -20 14 8 11 52 -5 83 -19 35 -75 85 -126 111
-115 59 -459 102 -710 89 -436 -22 -748 -52 -929 -89 -229 -47 -530 -149 -716
-242 l-69 -35 -50 71 c-113 163 -426 440 -647 574 -255 153 -565 272 -829 317
-155 27 -143 21 -126 54 22 41 101 116 176 166 60 40 192 107 364 184 108 49
196 113 306 224 324 324 480 623 515 982 16 168 42 277 97 404 18 43 14 68 -8
53 -6 -4 -52 -73 -103 -154 -238 -381 -521 -681 -856 -911 -274 -187 -450
-246 -965 -322 -281 -41 -486 -103 -742 -222 -79 -37 -124 -52 -138 -48 -11 4
-181 7 -378 7 -752 0 -1534 -90 -2269 -261 -113 -26 -147 -30 -291 -30 -240
-2 -357 -15 -564 -67 -192 -48 -159 -35 347 137 390 133 624 207 800 254 174
47 143 57 -90 30 -559 -66 -1102 -207 -1818 -474 -205 -76 -222 -81 -275 -75
-99 10 -118 20 -186 100 -116 135 -184 294 -346 799 -186 581 -297 1224 -356
2055 -21 306 -30 1137 -15 1501 62 1513 277 2883 732 4659 70 270 80 323 75
371 -6 62 -45 142 -82 166 -13 8 -24 21 -24 28 0 25 -43 49 -148 81 -209 63
-529 119 -862 150 -142 13 -333 16 -1025 18 -467 1 -881 1 -920 0z m635 -19
c775 -24 1124 -55 1322 -115 74 -23 119 -53 103 -69 -24 -25 -427 -121 -655
-157 -58 -9 -136 -24 -175 -34 -38 -10 -241 -53 -450 -95 -209 -42 -501 -105
-650 -141 -307 -73 -339 -82 -310 -84 11 0 -70 -34 -180 -74 -1143 -418 -2046
-880 -3125 -1599 -365 -244 -678 -488 -1122 -878 -48 -43 -217 -175 -374 -294
-300 -228 -396 -305 -566 -456 -121 -107 -565 -527 -758 -717 l-135 -134 175
134 c697 533 1051 794 1219 901 68 43 206 141 305 216 381 290 801 578 921
634 115 53 180 49 203 -10 6 -15 21 -82 32 -148 100 -564 300 -1469 375 -1695
19 -58 64 -229 100 -380 372 -1563 833 -3059 1405 -4555 239 -624 550 -1351
834 -1949 l67 -140 -61 -100 c-179 -297 -514 -701 -876 -1056 -438 -430 -978
-844 -1323 -1013 -91 -44 -113 -51 -182 -55 -43 -2 -89 -2 -103 2 -15 4 -51
37 -88 81 -34 41 -74 79 -90 86 -40 17 -81 65 -194 234 -531 789 -1125 1942
-1564 3035 -34 85 -73 166 -85 180 -13 14 -57 94 -99 178 -69 135 -96 176 -96
141 0 -5 -14 -38 -30 -73 -30 -62 -78 -121 -115 -142 -19 -10 -14 -22 84 -220
137 -276 234 -489 397 -869 133 -312 125 -296 352 -700 75 -132 160 -289 189
-348 64 -130 135 -297 131 -309 -2 -5 -58 76 -124 179 -112 174 -237 391 -509
883 -116 210 -276 470 -445 725 -58 88 -144 225 -190 305 -168 292 -158 279
-235 325 -94 58 -133 92 -214 188 -207 246 -332 540 -372 867 -8 70 -18 107
-38 140 -87 149 -104 182 -212 410 -53 113 -147 311 -209 440 -105 219 -176
398 -168 422 4 11 425 -621 589 -884 99 -160 105 -166 124 -152 76 56 193 76
317 54 38 -6 71 -10 73 -8 3 2 -14 40 -36 84 -22 43 -120 234 -216 424 -97
190 -179 350 -183 355 -4 6 -63 118 -130 250 -68 132 -126 245 -130 250 -4 6
-43 78 -85 160 -43 83 -115 218 -160 300 -45 83 -108 199 -141 259 -78 144
-192 265 -303 319 -40 21 -82 37 -92 37 -23 0 -28 18 -30 120 -3 122 -16 99
302 522 165 220 193 258 185 258 -16 0 -211 -193 -333 -330 -205 -228 -639
-667 -825 -833 -467 -418 -835 -669 -1373 -937 -356 -176 -653 -287 -1018
-379 -533 -136 -1152 -175 -1585 -101 -185 32 -366 96 -439 156 -56 46 -145
153 -194 234 -47 77 -95 222 -110 335 -20 155 7 375 69 562 38 113 125 322
161 388 100 180 105 191 81 170 -28 -24 -24 -16 43 85 73 109 186 266 303 420
63 84 122 175 154 240 133 268 355 545 726 910 298 293 549 505 939 796 660
492 1389 933 2585 1565 899 475 2069 954 3195 1307 958 301 1065 333 1335 406
372 99 679 169 820 186 52 6 163 26 245 45 83 19 195 41 250 49 55 8 219 35
365 60 629 109 1201 179 1680 207 113 6 250 15 305 18 55 4 141 6 190 4 50 -1
164 -5 255 -8z m-1388 -1695 c11 -47 50 -182 85 -300 l65 -215 29 -285 c179
-1747 468 -3308 932 -5038 l55 -202 -24 -70 c-28 -79 -54 -237 -54 -326 0 -56
81 -544 130 -779 29 -143 91 -375 150 -560 28 -88 73 -239 101 -335 28 -96 61
-209 74 -250 31 -101 26 -121 -49 -181 -66 -53 -148 -86 -189 -75 -71 18 -237
380 -442 966 -101 289 -181 584 -220 807 -14 81 -41 238 -60 348 -82 465 -248
1585 -305 2060 -17 138 -48 360 -70 495 -22 135 -74 452 -115 706 -120 741
-210 1364 -203 1402 5 26 63 -196 98 -373 17 -88 42 -196 55 -240 48 -163 109
-354 113 -351 3 4 -187 1272 -248 1651 -58 359 -72 528 -50 606 6 20 12 112
14 205 4 175 21 298 58 419 l21 70 14 -35 c9 -19 24 -73 35 -120z m-773 -219
c30 -42 79 -180 111 -316 33 -139 86 -415 95 -495 3 -30 15 -109 25 -175 10
-66 23 -154 29 -195 10 -75 38 -262 86 -590 180 -1221 368 -2325 451 -2650 30
-118 75 -307 99 -420 62 -294 122 -541 236 -980 138 -530 214 -814 239 -885
11 -33 36 -145 55 -250 59 -321 94 -465 201 -821 95 -317 219 -664 285 -795
18 -36 18 -37 -1 -54 -24 -22 -4 -75 -195 505 -188 567 -241 742 -400 1300
-384 1353 -555 1989 -624 2330 -33 162 -108 522 -166 800 -215 1023 -283 1436
-395 2395 -28 237 -57 471 -65 521 -8 50 -22 156 -30 235 -21 196 -53 421 -70
497 -18 77 -18 72 -1 72 8 0 24 -13 35 -29z m-684 -70 c-18 -56 618 -3157 800
-3896 24 -99 76 -324 116 -500 242 -1080 551 -2193 903 -3250 168 -503 276
-793 378 -1012 l81 -173 -136 -130 c-125 -120 -350 -359 -522 -554 l-70 -79
-42 89 c-146 307 -267 581 -440 994 -974 2336 -1575 4262 -1897 6082 -70 393
-72 412 -57 520 7 51 15 156 18 233 4 119 1 162 -21 290 -35 208 -63 454 -71
621 l-7 142 35 53 c62 97 92 117 599 407 343 197 344 197 333 163z m12440
-6384 c-13 -49 -24 -109 -24 -135 1 -91 -66 -251 -166 -402 -63 -94 -226 -264
-325 -338 -77 -59 -170 -104 -345 -168 -189 -69 -352 -165 -520 -306 -246
-206 -387 -403 -441 -617 -48 -189 -162 -397 -289 -526 -159 -161 -341 -231
-649 -251 -91 -6 -106 -4 -156 16 -30 13 -65 32 -77 43 -13 11 -26 18 -29 14
-3 -3 -10 -51 -14 -105 -6 -84 -13 -109 -40 -160 -34 -65 -110 -134 -203 -186
l-52 -28 70 5 c39 3 90 12 115 21 24 8 46 14 48 12 10 -11 -65 -77 -119 -106
-56 -30 -71 -33 -139 -32 -138 2 -259 58 -318 147 -63 95 -67 221 -12 405 41
136 97 249 179 358 36 48 79 106 95 130 16 24 44 56 62 71 25 23 34 40 39 78
9 68 40 164 72 220 39 71 104 165 110 159 3 -2 0 -29 -7 -58 -6 -29 -14 -104
-17 -167 -7 -138 2 -142 64 -27 48 89 88 140 169 217 31 30 116 113 188 185
253 252 436 345 1051 534 446 138 793 289 1035 451 172 116 474 401 587 554
40 55 73 89 79 82 1 -1 -8 -42 -21 -90z m-3325 -1219 c-501 -51 -625 -68
-1050 -149 -305 -59 -1032 -286 -1465 -459 -243 -97 -281 -115 -230 -106 17 2
39 8 50 11 11 4 -83 -47 -210 -112 -1085 -561 -2000 -1228 -2904 -2118 -557
-549 -1012 -1091 -1383 -1650 -264 -398 -511 -851 -542 -995 -18 -85 -36 -263
-36 -361 0 -61 -5 -77 -69 -210 -124 -260 -323 -733 -423 -1004 -37 -101 -89
-188 -206 -344 -70 -93 -112 -163 -171 -285 -160 -327 -291 -598 -291 -601 0
-2 -13 -32 -29 -67 -16 -35 -41 -92 -56 -128 -166 -399 -489 -1075 -681 -1425
-88 -162 -274 -481 -314 -540 -15 -22 -78 -125 -140 -230 -279 -468 -556 -841
-1002 -1347 -148 -168 -373 -387 -479 -466 -445 -334 -672 -480 -979 -629
-148 -71 -502 -219 -652 -271 -167 -59 -536 -160 -883 -242 l-300 -71 -125 35
c-69 19 -193 49 -276 67 l-150 32 -55 -26 c-124 -61 -190 -71 -469 -71 -338
-1 -393 9 -633 105 -225 90 -663 308 -857 424 -387 234 -675 452 -949 720
-136 133 -291 305 -335 372 -57 88 -139 381 -170 611 -20 145 -21 430 -1 591
42 337 223 677 536 1008 191 201 207 214 409 355 188 130 323 215 495 313 66
37 154 87 195 110 72 41 551 271 695 333 357 156 500 196 820 236 410 51 568
61 965 61 450 0 613 -18 770 -86 58 -25 58 -25 70 -284 11 -238 46 -369 159
-593 144 -287 336 -517 740 -888 253 -232 386 -327 630 -449 75 -37 116 -67
199 -144 57 -53 118 -104 135 -113 41 -22 99 -22 168 -2 105 31 162 68 244
159 43 47 80 83 83 81 5 -6 -79 -164 -121 -226 -17 -25 -55 -76 -85 -113 -29
-38 -52 -70 -50 -72 2 -2 73 63 158 143 87 83 181 163 215 182 38 22 110 86
198 175 81 82 132 128 124 110 -40 -80 -145 -248 -204 -324 -37 -47 -71 -93
-77 -101 -6 -8 18 6 54 30 76 52 333 300 395 380 67 87 245 353 332 495 88
144 519 942 594 1100 26 55 82 174 124 265 l77 165 18 170 c10 94 22 211 25
260 l6 90 -19 -30 c-10 -16 -40 -68 -67 -115 -60 -106 -228 -363 -508 -774
-158 -231 -249 -353 -331 -445 -115 -129 -259 -305 -304 -373 -14 -22 -28 -35
-32 -31 -7 7 -86 269 -97 321 -4 15 -22 31 -58 47 -235 111 -396 487 -430
1000 -4 55 -12 120 -19 145 -8 25 -71 187 -141 360 -214 528 -324 806 -402
1015 -94 251 -239 660 -248 700 -15 67 -60 191 -74 209 -34 41 -77 49 -311 57
-246 8 -328 17 -497 55 -179 40 -293 84 -293 114 0 4 73 10 163 14 546 24
1150 165 1779 416 213 84 573 256 733 350 50 29 140 79 200 113 201 111 181
95 1006 763 151 122 306 250 346 285 40 35 186 163 326 284 442 384 839 728
947 824 58 51 127 104 153 117 27 14 105 77 175 141 250 229 475 405 755 592
174 115 406 256 412 249 8 -8 -67 -110 -133 -180 -37 -39 -122 -116 -190 -171
-119 -97 -144 -124 -85 -94 52 27 223 77 262 77 76 0 89 -46 45 -158 -14 -37
-42 -107 -61 -157 -63 -159 -148 -286 -274 -406 -63 -60 -66 -72 -27 -116 l20
-21 -122 -149 c-355 -432 -711 -941 -1042 -1493 -326 -544 -478 -858 -763
-1575 -111 -280 -285 -753 -285 -772 0 -5 101 190 223 432 223 439 353 685
537 1015 53 96 132 240 175 320 514 957 1260 1992 1822 2526 613 583 1037 917
1628 1284 463 288 1032 563 1572 761 198 72 913 311 998 333 274 71 1103 199
1675 259 19 2 98 4 175 4 137 0 138 0 55 -9z m-1450 -1145 c13 -104 -1 -217
-43 -344 -19 -57 -38 -131 -42 -164 -19 -175 -240 -673 -354 -799 -32 -35
-242 -176 -420 -282 -158 -93 -250 -175 -363 -321 -44 -57 -84 -105 -89 -109
-5 -3 -40 -51 -78 -107 -211 -317 -360 -677 -420 -1017 -45 -252 -62 -766 -32
-930 17 -94 53 -221 79 -280 51 -117 370 -620 426 -672 16 -14 69 -47 119 -73
114 -61 173 -67 331 -36 206 41 329 113 381 223 12 26 25 45 28 42 3 -3 22 -9
41 -14 38 -8 50 6 22 29 -25 21 -77 150 -93 233 -19 103 -12 283 16 411 66
291 243 634 470 906 133 162 218 234 338 292 101 49 103 51 142 117 24 41 72
99 123 147 67 64 104 90 188 132 89 44 257 103 293 103 5 0 -75 -87 -179 -192
-203 -207 -248 -264 -258 -329 -4 -23 -29 -87 -56 -144 -91 -190 -138 -328
-166 -495 -33 -202 -5 -433 68 -552 70 -113 235 -168 510 -168 190 0 455 50
557 105 62 34 144 100 114 91 -13 -3 -33 -8 -45 -11 l-23 -5 23 11 c12 7 22
16 22 21 0 5 35 25 78 45 42 20 102 53 132 73 31 20 62 39 71 42 31 12 259
190 381 296 69 62 207 195 305 297 110 114 202 201 240 226 170 110 540 550
940 1121 107 152 112 161 153 290 101 319 219 552 399 792 252 335 630 644
977 800 613 274 843 342 1224 360 74 3 108 2 95 -4 -11 -5 -65 -28 -120 -51
-224 -93 -384 -184 -705 -400 -373 -250 -541 -391 -890 -746 -237 -240 -342
-364 -489 -583 -162 -239 -249 -401 -341 -630 -21 -52 -85 -192 -143 -310 -96
-199 -116 -246 -175 -415 -11 -33 -44 -118 -72 -190 -71 -181 -143 -423 -180
-606 -43 -214 -113 -465 -155 -557 -20 -42 -82 -158 -138 -256 -83 -146 -119
-199 -193 -281 -234 -259 -498 -463 -779 -600 -247 -121 -438 -173 -666 -182
-179 -7 -275 10 -397 68 -132 64 -269 206 -318 330 -10 24 -22 47 -28 51 -22
16 -470 -23 -676 -58 -294 -49 -520 -124 -785 -259 -360 -183 -487 -267 -650
-430 -92 -91 -118 -124 -150 -190 -40 -80 -40 -80 -40 -201 l0 -121 -50 -40
c-128 -102 -243 -249 -326 -418 -80 -164 -101 -247 -101 -405 -1 -212 33 -298
181 -473 14 -17 13 -17 -12 -8 -15 6 -42 18 -60 27 l-32 16 40 -41 c86 -90
199 -142 375 -172 117 -21 279 -26 365 -13 l48 7 -6 -54 c-18 -177 -213 -492
-467 -753 -207 -213 -404 -366 -641 -498 -54 -29 -151 -89 -216 -133 -132 -89
-366 -212 -513 -270 -220 -86 -474 -156 -622 -171 -38 -4 -68 -10 -68 -13 0
-3 16 -13 36 -22 l36 -15 -90 -53 c-105 -62 -216 -144 -315 -232 -39 -35 -90
-76 -113 -91 -90 -57 -251 -277 -320 -437 -68 -157 -78 -277 -28 -353 32 -50
70 -68 163 -78 42 -4 92 -15 111 -23 56 -24 215 -47 324 -47 110 0 255 19 368
48 47 12 94 17 133 14 168 -12 435 73 664 211 52 31 96 57 98 57 12 0 -3 -45
-43 -120 -94 -178 -354 -518 -534 -698 -137 -137 -321 -249 -507 -312 -84 -28
-100 -30 -172 -24 l-79 7 9 26 c6 14 25 42 43 61 39 42 96 115 96 124 0 10
-93 -59 -256 -189 -286 -227 -568 -365 -853 -416 -135 -25 -314 -22 -416 5
-158 43 -301 147 -363 264 -42 78 -49 127 -24 174 19 36 19 36 -2 42 -34 9
-246 7 -357 -4 -57 -6 -158 -20 -224 -32 -66 -12 -145 -21 -175 -21 -30 0 -98
2 -150 3 -100 2 -199 -15 -330 -55 -41 -13 -97 -23 -123 -22 -38 0 -67 -9
-140 -46 -232 -118 -456 -338 -567 -558 -21 -41 -45 -81 -54 -88 -8 -7 -20
-28 -26 -47 -6 -19 -15 -34 -20 -34 -4 0 -13 29 -19 65 -9 52 -8 85 4 170 17
112 14 128 -24 140 -25 7 -56 68 -77 150 -14 54 -18 107 -18 230 1 183 15 282
75 504 88 326 225 594 440 861 81 101 132 193 205 372 25 60 54 127 66 149 34
65 53 209 40 304 -27 201 -113 305 -253 305 -59 0 -173 -88 -271 -210 l-36
-45 5 135 c5 156 42 330 97 458 86 201 248 451 416 641 75 85 96 125 181 341
94 237 150 466 169 693 29 337 151 730 351 1130 74 147 204 375 270 473 112
167 505 617 598 686 23 16 41 27 41 24 0 -4 -22 -37 -50 -75 -120 -165 -270
-445 -363 -681 -59 -149 -80 -280 -74 -476 10 -339 94 -586 288 -843 60 -79
192 -186 277 -225 85 -37 150 -43 264 -21 160 31 339 103 465 188 99 67 223
180 279 256 239 324 391 786 439 1336 8 97 24 218 34 269 24 114 48 262 56
341 3 33 16 101 27 150 16 70 21 122 20 231 l0 142 -47 94 c-45 91 -47 100
-52 199 -9 170 32 338 142 582 141 313 401 715 594 919 115 123 352 331 466
410 61 41 196 123 300 180 821 451 1676 1105 2052 1569 152 187 288 428 333
589 22 81 27 193 10 250 -17 59 -10 67 16 17 14 -28 28 -78 34 -124z m2574
-1390 c-17 -46 -34 -134 -55 -287 -87 -645 -208 -1178 -401 -1766 -50 -153
-70 -199 -114 -265 -73 -109 -214 -258 -311 -328 -158 -113 -382 -211 -542
-236 -82 -13 -197 1 -265 33 -64 29 -139 95 -171 151 -41 70 -75 182 -75 249
0 84 27 229 55 301 13 33 44 115 69 182 95 255 193 411 370 588 202 201 250
232 692 447 128 61 136 83 17 41 -145 -51 -363 -91 -549 -101 -137 -8 -173
-14 -259 -42 -217 -70 -531 -208 -670 -295 -75 -47 -190 -160 -290 -285 -33
-41 -98 -118 -145 -170 -47 -52 -104 -122 -126 -155 -105 -155 -240 -435 -309
-640 -64 -189 -85 -307 -95 -525 -18 -411 -44 -462 -275 -541 -55 -19 -91 -24
-166 -24 -90 0 -99 2 -171 37 -94 47 -170 125 -255 264 -88 143 -120 212 -169
361 -54 163 -83 323 -93 502 -14 278 15 473 102 695 48 121 57 136 117 197
130 131 373 309 625 456 511 299 855 475 1161 596 240 95 691 247 909 307 17
5 120 34 230 64 339 95 476 129 721 181 172 37 371 70 441 74 l22 1 -25 -67z
m-7029 -3191 c10 -26 40 -68 66 -94 25 -25 49 -53 52 -62 3 -8 23 -20 45 -25
147 -40 252 -293 252 -608 0 -211 -33 -415 -119 -733 -124 -461 -222 -683
-388 -876 -117 -135 -242 -222 -412 -285 -122 -46 -194 -51 -286 -19 -72 25
-83 34 -91 74 -5 27 2 44 35 96 45 69 50 86 24 71 -10 -5 -60 -23 -111 -41
-104 -36 -164 -40 -193 -14 -35 31 -93 127 -132 219 -35 81 -40 101 -45 198
-8 171 27 380 107 627 22 68 39 126 37 127 -1 2 -15 -19 -30 -47 -29 -54 -41
-61 -51 -31 -8 25 5 55 76 180 161 280 305 471 578 763 169 182 535 526 561
528 3 0 14 -21 25 -48z m5089 -752 c63 -14 88 -40 141 -146 28 -55 73 -129
101 -164 103 -129 249 -252 346 -290 18 -7 34 -14 36 -15 3 -3 -101 -299 -166
-475 -28 -74 -81 -202 -118 -285 -36 -82 -106 -240 -154 -350 -236 -538 -444
-976 -542 -1142 -36 -59 -87 -148 -113 -198 -457 -852 -1093 -1914 -1543
-2575 -649 -953 -1410 -1885 -2092 -2558 -277 -274 -591 -562 -612 -562 -4 0
-4 8 -1 17 6 15 2 14 -23 -3 -102 -71 -278 -151 -514 -234 -74 -26 -196 -71
-270 -99 -74 -29 -196 -73 -270 -98 -133 -45 -135 -46 -230 -39 -121 8 -230
32 -402 90 -75 25 -140 46 -145 46 -6 0 -15 -11 -21 -25 -17 -38 -69 -65 -125
-65 -75 0 -181 31 -452 134 -303 114 -659 222 -845 256 -25 5 -88 18 -140 30
-346 78 -689 120 -971 120 -105 0 -128 -3 -211 -31 -102 -34 -265 -112 -337
-161 -75 -52 -151 -129 -177 -180 -25 -50 -31 -73 -14 -63 5 3 -15 -34 -44
-82 -30 -48 -74 -124 -100 -168 -26 -46 -46 -71 -46 -60 0 30 52 222 102 375
42 129 46 136 80 152 78 37 120 124 155 323 14 82 17 157 17 425 -1 356 -10
442 -58 546 -14 31 -26 67 -26 80 0 42 -30 165 -57 232 -53 134 -172 276 -307
367 -45 30 -97 68 -116 85 -34 29 -35 30 -19 57 9 15 61 102 116 193 191 315
441 788 516 975 24 61 99 220 166 355 67 135 145 299 173 365 88 209 290 613
420 840 69 121 167 294 219 385 285 504 599 983 751 1146 33 35 64 64 69 64 5
0 8 -88 7 -197 l-2 -196 -69 -86 c-276 -343 -493 -802 -591 -1246 -82 -377
-79 -567 15 -765 36 -76 40 -72 59 54 17 113 29 136 29 59 1 -35 4 -63 9 -62
4 0 27 32 52 70 60 94 145 174 199 189 37 10 48 8 86 -10 109 -53 154 -281 93
-465 -34 -99 -96 -210 -157 -277 -73 -81 -216 -320 -279 -468 -95 -221 -177
-483 -214 -685 -17 -91 -17 -507 1 -635 50 -382 135 -689 208 -753 20 -18 21
-17 33 35 18 76 68 214 100 279 117 231 336 454 592 602 116 67 171 82 299 82
99 0 110 -2 166 -31 l60 -31 62 38 c201 121 453 168 624 115 86 -26 97 -38 97
-106 0 -73 41 -204 84 -268 34 -51 54 -61 206 -106 58 -18 114 -26 175 -28
135 -4 421 12 498 28 158 32 333 107 508 217 l105 65 64 -15 c92 -22 291 -12
430 21 271 63 466 165 716 370 136 112 243 263 449 636 230 418 355 611 562
870 149 186 355 363 580 497 49 29 95 57 103 62 25 16 -91 -17 -160 -45 -107
-43 -369 -180 -470 -245 -52 -34 -149 -104 -215 -157 -223 -177 -496 -342
-839 -507 -216 -104 -301 -136 -451 -171 -104 -24 -141 -28 -275 -28 -171 0
-243 13 -339 62 -74 37 -92 65 -99 150 -12 181 115 381 403 631 143 124 160
136 286 193 l114 52 135 2 c188 2 357 41 575 130 61 25 167 67 236 94 138 53
254 109 354 170 36 22 65 38 65 35 0 -6 -309 -212 -368 -245 -69 -39 -40 -34
65 10 464 197 864 557 1096 985 29 55 72 129 94 166 23 36 61 106 87 156 25
51 66 115 90 142 161 181 478 870 540 1174 14 69 37 285 35 337 -1 14 -7 -14
-14 -62 -30 -190 -126 -349 -340 -564 -147 -147 -200 -190 -289 -229 -95 -42
-173 -57 -297 -57 -181 0 -317 44 -415 134 -47 43 -101 140 -110 199 -8 45 21
198 50 271 77 191 265 387 410 428 42 11 46 16 46 43 0 55 42 212 75 277 69
136 278 373 460 519 111 89 386 269 470 308 177 82 412 161 557 188 85 15 276
18 332 5z m-4814 -1007 c-33 -133 -85 -273 -154 -418 -56 -116 -176 -322 -176
-301 0 5 17 36 39 70 85 136 170 333 231 541 41 143 67 211 76 202 3 -3 -4
-45 -16 -94z m-6880 -6337 c327 -53 432 -83 535 -152 39 -26 106 -66 151 -89
257 -133 499 -424 549 -660 8 -39 15 -105 15 -147 l0 -76 -31 -7 c-25 -6 -34
-3 -42 10 -5 9 -22 31 -38 49 l-28 31 -1 -58 c0 -32 -7 -71 -15 -87 -11 -22
-12 -35 -5 -56 23 -60 -23 -126 -98 -140 -54 -10 -190 12 -312 51 -230 75
-576 276 -805 468 -115 97 -259 251 -330 352 -211 301 -310 394 -418 395 -46
0 -102 -24 -122 -53 l-15 -21 -39 22 c-21 12 -45 22 -53 22 -28 0 -51 25 -43
48 10 33 70 59 176 77 51 9 97 19 102 22 27 17 265 31 472 29 194 -2 256 -7
395 -30z"/>
<path d="M9138 4902 c-106 -92 -349 -250 -533 -347 -60 -32 -173 -97 -250
-145 -493 -306 -1114 -591 -1830 -840 -154 -54 -352 -128 -440 -164 -186 -78
-450 -170 -650 -227 -128 -36 -135 -39 -77 -34 87 7 480 92 806 175 867 219
1410 423 1891 707 83 49 211 124 285 167 247 143 293 179 494 375 248 245 422
435 304 333z"/>
</g>
</svg>
